# AST/ASF file generated using VICON BodyLanguage
# -----------------------------------------------
:version 1.10
:name VICON
:units
  mass 1.0
  length 0.45
  angle deg
:documentation
   .ast/.asf automatically generated from VICON data using
   VICON BodyBuilder and BodyLanguage model FoxedUp or BRILLIANT.MOD
:root
   order TX TY TZ RX RY RZ
   axis XYZ
   position 0 0 0  
   orientation 0 0 0 
:bonedata
  begin
     id 1 
     name lhipjoint
     direction 0.650112 -0.723553 0.232005 
     length 2.45805 
     axis 0 0 0  XYZ
  end
  begin
     id 2 
     name lfemur
     direction 0.34202 -0.939693 0  
     length 7.00073  
     axis 0 0 20  XYZ
    dof rx ry rz
    limits (-160.0 20.0)
           (-70.0 70.0)
           (-60.0 70.0)
  end
  begin
     id 3 
     name ltibia
     direction 0.34202 -0.939693 0   
     length 7.8748   
     axis 0 0 20   XYZ
    dof rx
    limits (-10.0 170.0)
  end
  begin
     id 4 
     name lfoot
     direction 0.0542825 -0.14914 0.987325   
     length 1.75978   
     axis -90 7.62852e-016 20   XYZ
    dof rx rz
    limits (-45.0 90.0)
           (-70.0 20.0)
  end
  begin
     id 5 
     name ltoes
     direction 1.53509e-011 -4.21906e-011 1   
     length 0.893912   
     axis -90 7.62852e-016 20   XYZ
    dof rx
    limits (-90.0 20.0)
  end
  begin
     id 6 
     name rhipjoint
     direction -0.637897 -0.733345 0.235145   
     length 2.42522  
     axis 0 0 0  XYZ 
  end
  begin
     id 7 
     name rfemur
     direction -0.34202 -0.939693 0   
     length 7.02549   
     axis 0 0 -20   XYZ
    dof rx ry rz
    limits (-160.0 20.0)
           (-70.0 70.0)
           (-70.0 60.0)
  end
  begin
     id 8 
     name rtibia
     direction -0.34202 -0.939693 0   
     length 7.71512   
     axis 0 0 -20   XYZ
    dof rx
    limits (-10.0 170.0)
 end
 begin
     id 9 
     name rfoot
     direction -0.0822618 -0.226012 0.970645   
     length 1.90014  
     axis -90 -7.62852e-016 -20   XYZ
    dof rx rz
    limits (-45.0 90.0)
           (-20.0 70.0)
  end
  begin
     id 10 
     name rtoes
     direction -1.53542e-011 -4.21872e-011 1   
     length 0.957341   
     axis -90 -7.62852e-016 -20   XYZ
    dof rx
    limits (-90.0 20.0)
  end
  begin
     id 11 
     name lowerback
     direction -0.0022947 0.999774 -0.0211557   
     length 1.89909   
     axis 0 0 0   XYZ
    dof rx ry rz
    limits (-20.0 45.0)
           (-30.0 30.0)
           (-30.0 30.0)
  end
  begin
     id 12 
     name upperback
     direction 0.0107737 0.998635 0.0511027   
     length 1.8853   
     axis 0 0 0   XYZ
    dof rx ry rz
    limits (-20.0 45.0)
           (-30.0 30.0)
           (-30.0 30.0)
  end
  begin
     id 13 
     name thorax
     direction 0.011824 0.998136 0.0598754   
     length 1.88911   
     axis 0 0 0   XYZ
    dof rx ry rz
    limits (-20.0 45.0)
           (-30.0 30.0)
           (-30.0 30.0)
  end
  begin
     id 14 
     name lowerneck
     direction -0.0685355 0.990319 0.120714   
     length 1.91222   
     axis 0 0 0   XYZ
    dof rx ry rz
    limits (-20.0 45.0)
           (-30.0 30.0)
           (-30.0 30.0)
  end
  begin
     id 15 
     name upperneck
     direction 0.0886204 0.955665 -0.280805   
     length 1.92526   
     axis 0 0 0   XYZ
    dof rx ry rz
    limits (-20.0 45.0)
           (-30.0 30.0)
           (-30.0 30.0)
  end
  begin
     id 16
     name head
     direction 0.0233423 0.993502 -0.111393  
     length 1.96056  
     axis 0 0 0   XYZ
    dof rx ry rz
    limits (-20.0 45.0)
           (-30.0 30.0)
           (-30.0 30.0)
  end
  begin
     id 17 
     name lclavicle
     direction 0.941873 0.32922 0.0670041  
     length 3.31705  
     axis 0 0 0   XYZ
    dof ry rz
    limits (-20.0 10.0)
           (0.0 20.0)
  end
  begin
     id 18 
     name lhumerus
     direction 1 -4.4898e-011 3.38707e-028   
     length 5.29277   
     axis 180 -30 -90   XYZ
    dof rx ry rz
    limits (-60.0 90.0)
           (-90.0 90.0)
           (-90.0 90.0)
  end
  begin
     id 19
     name lradius
     direction 1 -4.48952e-011 1.63213e-028   
     length 2.85226   
     axis 180 -30 -90   XYZ
    dof rx
    limits (-10.0 170.0)
  end
  begin
     id 20
     name lwrist
     direction 1 -4.49001e-011 1.27856e-027   
     length 1.42613   
     axis -1.61767e-015 90 90   XYZ
    dof ry
    limits (-180.0 0.0)
 end
  begin
     id 21 
     name lhand
     direction 1 -4.48976e-011 2.55931e-027   
     length 0.602097   
     axis -1.63363e-015 90 90   XYZ
    dof rx rz
    limits (-90.0 90.0)
           (-45.0 45.0)
  end
  begin
     id 22 
     name lfingers
     direction 1 -4.48986e-011 5.11684e-027   
     length 0.485426   
     axis -3.26723e-015 90 90   XYZ
    dof rx
    limits (0.0 90.0)
  end
  begin
     id 23
     name lthumb
     direction 0.707107 -6.34915e-011 0.707107   
     length 0.696978   
     axis -90 45 -2.25915e-014   XYZ
    dof rx rz
    limits (-45.0 45.0)
           (-45.0 45.0)
  end
  begin
     id 24 
     name rclavicle
     direction -0.939974 0.327078 0.0973096   
     length 3.10337  
     axis 0 0 0   XYZ 
    dof ry rz
    limits (-10.0 20.0)
           (-20.0 0.0)
  end
  begin
     id 25 
     name rhumerus
     direction -1 -4.48975e-011 1.83745e-027  
     length 5.13304   
     axis 180 30 90   XYZ
    dof rx ry rz
    limits (-90.0 60.0)
           (-90.0 90.0)
           (-90.0 90.0)
  end
  begin
     id 26 
     name rradius
     direction -1 -4.48977e-011 7.1775e-029   
     length 2.74305   
     axis 180 30 90   XYZ
    dof rx
    limits (-10.0 170.0)
  end
  begin
     id 27 
     name rwrist
     direction -1 -4.48977e-011 1.27963e-027   
     length 1.37152   
     axis -1.61767e-015 -90 -90   XYZ
    dof ry
    limits (-180.0 0.0)
  end
  begin
     id 28
     name rhand
     direction -1 -4.4888e-011 2.56782e-027   
     length 0.767976   
     axis -1.63363e-015 -90 -90   XYZ
    dof rx rz
    limits (-90.0 90.0)
           (-45.0 45.0)
  end
  begin
     id 29
     name rfingers
     direction -1 -4.48947e-011 5.12384e-027   
     length 0.619162   
     axis -3.26723e-015 -90 -90   XYZ
    dof rx
    limits (0.0 90.0)
  end
  begin
     id 30
     name rthumb
     direction -0.707107 -6.34857e-011 0.707107   
     length 0.888997   
     axis -90 -45 2.25915e-014   XYZ
    dof rx rz
    limits (-45.0 45.0)
           (-45.0 45.0)
  end
:hierarchy
  begin
    root lhipjoint rhipjoint lowerback
    lhipjoint lfemur
    lfemur ltibia
    ltibia lfoot
    lfoot ltoes
    rhipjoint rfemur
    rfemur rtibia
    rtibia rfoot
    rfoot rtoes
    lowerback upperback
    upperback thorax
    thorax lowerneck lclavicle rclavicle
    lowerneck upperneck
    upperneck head
    lclavicle lhumerus
    lhumerus lradius
    lradius lwrist
    lwrist lhand lthumb
    lhand lfingers
    rclavicle rhumerus
    rhumerus rradius
    rradius rwrist
    rwrist rhand rthumb
    rhand rfingers
  end

#!OML:ASF F:\VICON\USERDATA\INSTALL\rory3\rory3.ASF
:FULLY-SPECIFIED
:DEGREES
686
root 0.259102 16.9598 0.800912 -0.726995 1.11782 0.471614
lowerback -3.1357 1.18948 -2.30148
upperback 0.878988 1.53661 6.17424
thorax 2.44251 0.688413 7.84044
lowerneck -6.946 -9.88972 -13.1492
upperneck 39.3032 -18.5593 14.8945
head 19.2292 -7.91088 5.95514
rclavicle -3.23025e-016 -2.06736e-014
rhumerus -29.1873 1.44212 -77.736
rradius 24.4726
rwrist 21.8451
rhand -11.6094 14.6994
rfingers 7.12502
rthumb 14.4334 -14.7787
lclavicle -3.23025e-016 -2.06736e-014
lhumerus 51.9612 -63.8778 -42.3278
lradius 100.408
lwrist -2.85061
lhand -3.01807 9.7776
lfingers 7.12502
lthumb 22.6966 38.4628
rfemur -5.01859 5.7572 17.0969
rtibia 28.5192
rfoot -21.5904 -5.97658
rtoes -12.3973
lfemur -7.59562 -10.2882 -19.46
ltibia 30.8211
lfoot -20.9797 3.81097
ltoes -14.7686
687
root 0.25852 16.9574 0.799822 -0.749663 1.04524 0.405703
lowerback -3.14044 1.156 -2.27615
upperback 0.929581 1.48709 6.23335
thorax 2.50455 0.660409 7.88904
lowerneck -6.96733 -9.88415 -13.2052
upperneck 39.3086 -18.5319 14.8766
head 19.2362 -7.90987 5.96109
rclavicle -1.39149e-014 9.54166e-015
rhumerus -29.0207 1.6191 -77.7311
rradius 24.4383
rwrist 21.7763
rhand -11.6625 14.7142
rfingers 7.12502
rthumb 14.3822 -14.7675
lclavicle -1.39149e-014 9.54166e-015
lhumerus 53.0877 -64.8442 -42.8371
lradius 100.828
lwrist -2.95464
lhand -3.38437 9.99156
lfingers 7.12502
lthumb 22.345 38.7194
rfemur -5.05652 5.80274 17.1747
rtibia 28.5999
rfoot -21.6034 -5.94507
rtoes -12.3606
lfemur -7.60693 -10.2116 -19.3856
ltibia 30.8985
lfoot -20.9905 3.77134
ltoes -14.7149
688
root 0.257836 16.9543 0.799916 -0.731031 0.957524 0.37975
lowerback -3.21836 1.09845 -2.27355
upperback 0.984491 1.40593 6.26143
thorax 2.61753 0.614686 7.91833
lowerneck -7.0439 -9.84869 -13.1845
upperneck 39.3759 -18.4533 14.7922
head 19.2594 -7.88008 5.93349
rclavicle 4.87022e-015 2.70347e-014
rhumerus -28.8697 1.65902 -77.7589
rradius 24.4334
rwrist 21.9366
rhand -11.7687 14.6728
rfingers 7.12502
rthumb 14.2799 -14.8162
lclavicle 4.87022e-015 2.70347e-014
lhumerus 54.077 -65.8637 -43.2293
lradius 101.172
lwrist -3.00701
lhand -3.49054 10.0995
lfingers 7.12502
lthumb 22.2431 38.8395
rfemur -5.12833 5.82325 17.197
rtibia 28.661
rfoot -21.6108 -5.92886
rtoes -12.024
lfemur -7.66496 -10.1628 -19.3469
ltibia 30.9831
lfoot -21.0664 3.72741
ltoes -14.4735
689
root 0.257468 16.9508 0.799846 -0.747583 0.88697 0.345349
lowerback -3.22551 1.06001 -2.23398
upperback 1.02496 1.35068 6.26234
thorax 2.67297 0.584893 7.89488
lowerneck -7.07325 -9.83049 -13.0938
upperneck 39.4263 -18.4208 14.7116
head 19.2606 -7.86022 5.88548
rclavicle 1.32068e-014 -4.13472e-014
rhumerus -28.7217 1.49578 -77.7771
rradius 24.3492
rwrist 22.2125
rhand -11.8899 14.6556
rfingers 7.12502
rthumb 14.1631 -14.8416
lclavicle 1.32068e-014 -4.13472e-014
lhumerus 55.5628 -66.8706 -44.0917
lradius 101.467
lwrist -2.95201
lhand -3.84161 10.1114
lfingers 7.12502
lthumb 21.9061 38.8913
rfemur -5.14719 5.80449 17.2262
rtibia 28.6967
rfoot -21.6598 -5.82976
rtoes -11.5655
lfemur -7.686 -10.1073 -19.3083
ltibia 31.0728
lfoot -21.1252 3.6826
ltoes -14.4917
690
root 0.258166 16.9505 0.800673 -0.768694 0.811963 0.339924
lowerback -3.22996 1.06353 -2.20263
upperback 1.04724 1.35347 6.24158
thorax 2.69934 0.585679 7.8549
lowerneck -7.00909 -9.84959 -13.0967
upperneck 39.4508 -18.4948 14.775
head 19.2931 -7.88855 5.90777
rclavicle 2.8302e-014 1.11319e-014
rhumerus -28.6463 1.36158 -77.7841
rradius 24.2922
rwrist 22.3872
rhand -11.9162 14.588
rfingers 7.12502
rthumb 14.1377 -14.911
lclavicle 2.8302e-014 1.11319e-014
lhumerus 57.3533 -67.7992 -45.1522
lradius 101.74
lwrist -3.00326
lhand -3.9757 9.82466
lfingers 7.12502
lthumb 21.7773 38.6195
rfemur -5.15504 5.82072 17.2242
rtibia 28.7312
rfoot -21.6723 -5.78432
rtoes -12.2744
lfemur -7.68218 -10.0482 -19.3104
ltibia 31.1461
lfoot -21.1723 3.56447
ltoes -13.5831
691
root 0.259004 16.9498 0.800971 -0.834624 0.741431 0.273602
lowerback -3.10752 1.05742 -2.1244
upperback 1.03966 1.34287 6.26231
thorax 2.62515 0.583762 7.82701
lowerneck -6.91474 -9.86758 -13.154
upperneck 39.4776 -18.5489 14.8154
head 19.3171 -7.92133 5.93364
rclavicle -1.02126e-014 6.36111e-015
rhumerus -28.595 1.43252 -77.815
rradius 24.2509
rwrist 22.4236
rhand -11.7987 14.5406
rfingers 7.12502
rthumb 14.2509 -14.9504
lclavicle -1.02126e-014 6.36111e-015
lhumerus 59.029 -68.7885 -46.0652
lradius 102.029
lwrist -3.13658
lhand -3.99687 9.6519
lfingers 7.12502
lthumb 21.757 38.4491
rfemur -5.12745 5.804 17.2889
rtibia 28.7816
rfoot -21.6291 -5.72425
rtoes -12.9066
lfemur -7.62344 -9.98019 -19.2549
ltibia 31.2022
lfoot -21.2136 3.53408
ltoes -13.2171
692
root 0.258909 16.9478 0.80128 -0.864286 0.663518 0.219226
lowerback -2.90238 1.02585 -2.03298
upperback 0.949532 1.30279 6.25774
thorax 2.4237 0.572735 7.75813
lowerneck -6.78589 -9.85521 -13.1624
upperneck 39.524 -18.5504 14.8001
head 19.3101 -7.93372 5.93662
rclavicle -5.39203e-015 -3.18055e-014
rhumerus -28.6495 1.28887 -77.8352
rradius 24.2353
rwrist 22.7529
rhand -11.721 14.5758
rfingers 7.12502
rthumb 14.3258 -14.91
lclavicle -5.39203e-015 -3.18055e-014
lhumerus 60.9036 -69.9401 -47.2226
lradius 102.294
lwrist -3.2487
lhand -3.94196 9.7521
lfingers 7.12502
lthumb 21.8097 38.5432
rfemur -5.1419 5.81697 17.3451
rtibia 28.8557
rfoot -21.6547 -5.66681
rtoes -12.6045
lfemur -7.59035 -9.88319 -19.1919
ltibia 31.2398
lfoot -21.2851 3.55299
ltoes -13.2366
693
root 0.258894 16.9444 0.800357 -0.86664 0.565687 0.293274
lowerback -2.75764 1.01271 -2.06384
upperback 0.863582 1.2924 6.21697
thorax 2.25452 0.573884 7.72512
lowerneck -6.62857 -9.84674 -13.182
upperneck 39.557 -18.5623 14.8034
head 19.2949 -7.95148 5.9492
rclavicle -7.55382e-015 -5.56597e-014
rhumerus -28.7311 0.906393 -77.7489
rradius 24.2303
rwrist 23.3318
rhand -11.6376 14.6794
rfingers 7.12502
rthumb 14.4062 -14.8006
lclavicle -7.55382e-015 -5.56597e-014
lhumerus 63.0001 -71.0476 -48.491
lradius 102.487
lwrist -3.25564
lhand -3.3821 9.76091
lfingers 7.12502
lthumb 22.3472 38.4885
rfemur -5.22 5.81558 17.2503
rtibia 28.9728
rfoot -21.676 -5.63354
rtoes -12.5837
lfemur -7.58891 -9.75228 -19.2724
ltibia 31.2752
lfoot -21.3363 3.60546
ltoes -13.5073
694
root 0.26027 16.942 0.799752 -0.869894 0.465658 0.420061
lowerback -2.72247 0.965757 -2.16737
upperback 0.875778 1.23355 6.18887
thorax 2.25463 0.542582 7.75207
lowerneck -6.59293 -9.83786 -13.2643
upperneck 39.5696 -18.5358 14.7903
head 19.2961 -7.95874 5.9651
rclavicle -7.00716e-015 -7.79236e-014
rhumerus -28.6204 0.710807 -77.7119
rradius 24.2242
rwrist 23.7418
rhand -11.52 14.6651
rfingers 7.12502
rthumb 14.5195 -14.8068
lclavicle -7.00716e-015 -7.79236e-014
lhumerus 64.3718 -72.1566 -49.0637
lradius 102.72
lwrist -3.14152
lhand -2.764 9.52853
lfingers 7.12502
lthumb 22.9404 38.1837
rfemur -5.31547 5.79276 17.0833
rtibia 29.1063
rfoot -21.7556 -5.49219
rtoes -12.4807
lfemur -7.59087 -9.6846 -19.4226
ltibia 31.3213
lfoot -21.3032 3.76652
ltoes -14.3294
695
root 0.26219 16.9395 0.799548 -0.870771 0.327057 0.517896
lowerback -2.74519 0.905855 -2.26788
upperback 0.940382 1.15385 6.1895
thorax 2.3447 0.496802 7.81038
lowerneck -6.65313 -9.82938 -13.4077
upperneck 39.5909 -18.488 14.7728
head 19.3331 -7.96236 5.99067
rclavicle 5.14355e-015 1.11319e-014
rhumerus -28.3921 0.795548 -77.7655
rradius 24.2047
rwrist 23.9461
rhand -11.3517 14.5516
rfingers 7.12502
rthumb 14.6816 -14.9086
lclavicle 5.14355e-015 1.11319e-014
lhumerus 65.3714 -73.3399 -49.3327
lradius 102.972
lwrist -3.03471
lhand -2.73393 9.23947
lfingers 7.12502
lthumb 22.9693 37.891
rfemur -5.42112 5.79578 16.9461
rtibia 29.2461
rfoot -21.8404 -5.31548
rtoes -12.257
lfemur -7.58878 -9.59807 -19.5441
ltibia 31.3694
lfoot -21.2978 3.89871
ltoes -15.0981
696
root 0.263723 16.9366 0.798796 -0.873013 0.188338 0.477591
lowerback -2.71766 0.86477 -2.21158
upperback 0.970649 1.09492 6.20976
thorax 2.3702 0.466286 7.79691
lowerneck -6.66543 -9.80235 -13.4651
upperneck 39.6384 -18.4545 14.7892
head 19.3718 -7.95764 6.02089
rclavicle -9.05713e-015 -1.59028e-015
rhumerus -28.2526 0.938057 -77.8491
rradius 24.2157
rwrist 24.0407
rhand -11.2335 14.4604
rfingers 7.12502
rthumb 14.7956 -14.9915
lclavicle -9.05713e-015 -1.59028e-015
lhumerus 67.0801 -74.5146 -50.3117
lradius 103.199
lwrist -3.1605
lhand -2.85905 9.15303
lfingers 7.12502
lthumb 22.8492 37.8195
rfemur -5.50446 5.84079 16.9747
rtibia 29.3513
rfoot -21.8885 -5.2445
rtoes -12.7488
lfemur -7.5978 -9.47908 -19.5027
ltibia 31.4279
lfoot -21.3622 3.84875
ltoes -14.7022
697
root 0.264405 16.9339 0.79818 -0.877219 0.0641489 0.471953
lowerback -2.6947 0.776906 -2.24011
upperback 1.02966 0.974807 6.2456
thorax 2.43585 0.401686 7.84812
lowerneck -6.74415 -9.74602 -13.4479
upperneck 39.6925 -18.3677 14.7639
head 19.3979 -7.92083 6.02536
rclavicle -1.89715e-014 -6.36111e-014
rhumerus -28.0093 1.39914 -78.0149
rradius 24.1959
rwrist 23.9548
rhand -11.2287 14.3838
rfingers 7.12502
rthumb 14.8001 -15.0677
lclavicle -1.89715e-014 -6.36111e-014
lhumerus 68.4184 -75.7672 -50.9084
lradius 103.346
lwrist -3.37115
lhand -2.7518 9.1497
lfingers 7.12502
lthumb 22.9522 37.8034
rfemur -5.57399 5.89182 16.9679
rtibia 29.4536
rfoot -21.9286 -5.11991
rtoes -12.8703
lfemur -7.61688 -9.36745 -19.4954
ltibia 31.4937
lfoot -21.4238 3.75405
ltoes -14.1085
698
root 0.263702 16.9324 0.798721 -0.894025 -0.0544301 0.473807
lowerback -2.71104 0.68679 -2.26605
upperback 1.11809 0.85118 6.22773
thorax 2.55575 0.333528 7.84092
lowerneck -6.80295 -9.70995 -13.3132
upperneck 39.6774 -18.3295 14.7423
head 19.3674 -7.88684 5.99348
rclavicle -1.53685e-014 -1.59028e-015
rhumerus -27.6984 1.60819 -78.225
rradius 24.1005
rwrist 24.0969
rhand -11.2482 14.3369
rfingers 7.12502
rthumb 14.7813 -15.116
lclavicle -1.53685e-014 -1.59028e-015
lhumerus 69.8926 -76.9779 -51.6963
lradius 103.505
lwrist -3.36923
lhand -2.77614 9.04277
lfingers 7.12502
lthumb 22.9288 37.6994
rfemur -5.62579 5.95047 16.9644
rtibia 29.5432
rfoot -21.9247 -5.10077
rtoes -12.8686
lfemur -7.63308 -9.27485 -19.488
ltibia 31.5745
lfoot -21.5032 3.59934
ltoes -12.8463
699
root 0.262985 16.9287 0.79926 -0.89397 -0.178989 0.514786
lowerback -2.74795 0.653047 -2.28378
upperback 1.17591 0.805309 6.16045
thorax 2.64421 0.30678 7.77843
lowerneck -6.7401 -9.71095 -13.152
upperneck 39.5888 -18.3719 14.7693
head 19.2821 -7.88274 5.96264
rclavicle 6.48341e-015 -3.02153e-014
rhumerus -27.5085 1.64713 -78.4045
rradius 24.0461
rwrist 24.2729
rhand -11.2926 14.3094
rfingers 7.12502
rthumb 14.7386 -15.1467
lclavicle 6.48341e-015 -3.02153e-014
lhumerus 72.6061 -78.0911 -53.6627
lradius 103.682
lwrist -3.50217
lhand -3.06896 8.9358
lfingers 7.12502
lthumb 22.6478 37.627
rfemur -5.70473 5.97057 16.9098
rtibia 29.6498
rfoot -21.9762 -5.04712
rtoes -13.0075
lfemur -7.65901 -9.17381 -19.5309
ltibia 31.6545
lfoot -21.5997 3.64453
ltoes -13.1039
700
root 0.263638 16.9246 0.798095 -0.894272 -0.317066 0.473887
lowerback -2.70459 0.65013 -2.21307
upperback 1.22206 0.797143 6.15394
thorax 2.66981 0.302115 7.72964
lowerneck -6.74242 -9.73603 -13.054
upperneck 39.5222 -18.4314 14.7838
head 19.2421 -7.89176 5.93216
rclavicle -1.87168e-014 -4.29375e-014
rhumerus -27.3258 1.62644 -78.4462
rradius 23.9938
rwrist 24.4842
rhand -11.3544 14.3631
rfingers 7.12502
rthumb 14.6791 -15.0973
lclavicle -1.87168e-014 -4.29375e-014
lhumerus 75.8818 -79.177 -56.0471
lradius 103.849
lwrist -3.78791
lhand -3.30971 8.93648
lfingers 7.12502
lthumb 22.4167 37.6557
rfemur -5.79558 6.03391 16.9414
rtibia 29.7762
rfoot -22.0315 -4.9571
rtoes -12.5673
lfemur -7.68991 -9.04398 -19.4899
ltibia 31.7371
lfoot -21.5869 3.8324
ltoes -14.3544
